<?xml version="1.0" encoding="utf-8"?>
<!-- Generator: Adobe Illustrator 24.3.0, SVG Export Plug-In . SVG Version: 6.00 Build 0)  -->
<svg version="1.1" id="Capa_1" xmlns="http://www.w3.org/2000/svg" xmlns:xlink="http://www.w3.org/1999/xlink" x="0px" y="0px"
	 viewBox="0 0 512 512" style="enable-background:new 0 0 512 512;" xml:space="preserve">
<style type="text/css">
	.st0{fill:#FFFFFF;stroke:#000000;stroke-miterlimit:10;}
</style>
<g>
	<path class="st0" d="M406.9,379.1l-1,7.8c-0.5,4.1,2.4,7.9,6.5,8.4c0.3,0,0.6,0.1,0.9,0.1c3.7,0,7-2.8,7.4-6.6l1-7.8
		c3.3-26.9-3.7-53.7-19.8-75.5L331.9,210l19.3-69c1.7-6,4.2-11.7,7.4-16.9l9.1-14.6c6.1-9.8,5.8-21.8-0.6-31.3
		c-6.4-9.5-17.5-14.2-28.8-12.2l-4,0.7c-21,3.7-39.6,15.3-52.1,32.5l-16.3,22.4c-17.2-23-34.4-46-46.9-62.7
		c-6.1-8.2-15.1-13.6-25.3-15c-10.2-1.5-20.4,1.1-28.7,7.4l-0.6,0.5c-8,6-13.2,14.8-14.7,24.7c-1.4,9.9,1.1,19.8,7.1,27.9l46.7,62.3
		c-8.2-0.1-16.4,2.4-23.4,7.6c-13.8,10.3-18.6,28.2-13.2,43.6c-8.9-0.6-18,1.8-25.7,7.5c-14.6,10.9-19.2,30.4-12,46.4
		c-8.8-0.3-17.3,2.3-24.4,7.6c-16.9,12.7-20.4,36.8-7.7,53.7l34.1,45.9l33.1,47.5c1.5,2.1,3.8,3.2,6.2,3.2c1.5,0,3-0.4,4.3-1.4
		c3.4-2.4,4.2-7,1.9-10.4l-33.2-47.6c0-0.1-34.3-46.2-34.3-46.2c-3.7-5-5.3-11.2-4.4-17.3s4.1-11.6,9.1-15.4
		c5-3.7,11.2-5.3,17.3-4.4c5.2,0.7,9.9,3.2,13.4,6.9l36.1,48.2c2.5,3.3,7.2,4,10.5,1.5c3.3-2.5,4-7.2,1.5-10.5l-47.1-63
		c-7.7-10.3-5.6-25,4.7-32.7c10.3-7.7,25-5.6,32.7,4.7l42.8,57.2c2.5,3.3,7.2,4,10.5,1.5c3.3-2.5,4-7.2,1.5-10.5L184.4,219
		c-7.7-10.3-5.6-25,4.7-32.7c9.9-7.4,23.9-5.8,31.9,3.6l49,65.3c2.5,3.3,7.2,4,10.5,1.5c3.3-2.5,4-7.2,1.5-10.5L168.8,95.3
		c-3.6-4.8-5.1-10.8-4.3-16.7c0.9-6,4-11.2,8.8-14.9l0.6-0.5c5.1-3.8,11.3-5.4,17.6-4.5c6.2,0.9,11.6,4.1,15.4,9.1
		c13.9,18.6,61.4,82,65.3,87.3c2.5,3.3,7.2,4,10.5,1.5c3.3-2.5,4-7.2,1.5-10.5c-2.9-3.9-6-8-9-12l19-26.1
		c10.3-14.1,25.4-23.6,42.6-26.6l4-0.7c5.5-1,10.7,1.2,13.8,5.8c3.1,4.6,3.2,10.2,0.3,15l-9.1,14.6c-4,6.5-7.1,13.5-9.1,20.8
		l-16.1,57.9l-17.2-23c-2.5-3.3-7.2-4-10.5-1.5c-3.3,2.5-4,7.2-1.5,10.5L390,314.3C403.7,333,409.8,356,406.9,379.1L406.9,379.1z"/>
	<path class="st0" d="M413.5,449.2l3.5-28.7c0.5-4.1-2.4-7.9-6.5-8.4c-4.1-0.5-7.9,2.4-8.4,6.5l-3.7,29.8c-0.1,0.7-0.1,1.4,0,2.1
		l8.8,55.2c0.6,3.7,3.8,6.3,7.4,6.3c0.4,0,0.8,0,1.2-0.1c4.1-0.7,6.9-4.5,6.2-8.6L413.5,449.2z"/>
	<path class="st0" d="M239.5,478.6c-1-2.9-3-5.3-5.6-6.8l-6-3.5c-12.1-6.9-23-15.6-32.5-25.8c-2.8-3-7.6-3.2-10.6-0.4
		c-3,2.8-3.2,7.6-0.4,10.6c10.5,11.3,22.6,21,36,28.7l5.2,3l7.8,22.6c1.1,3.1,4,5.1,7.1,5.1c0.8,0,1.6-0.1,2.5-0.4
		c3.9-1.4,6-5.6,4.6-9.5L239.5,478.6z"/>
	<path class="st0" d="M261.9,60.7C261.9,60.7,261.9,60.7,261.9,60.7c3.4,3.4,7.8,5.1,12.2,5.1c4.4,0,8.8-1.7,12.2-5l18.5-18.3
		c4.7-4.7,7.4-10.9,7.4-17.6c0-6.7-2.6-12.9-7.3-17.6c-8.3-8.3-21-9.5-30.6-3.6C264.7-2.2,252-1,243.7,7.3l-0.1,0.1
		c-4.7,4.7-7.3,10.9-7.3,17.6s2.6,12.9,7.3,17.6L261.9,60.7z M254.3,17.9L254.3,17.9c3.9-3.9,10.1-3.9,14-0.1
		c3.3,3.3,8.8,3.3,12.1,0c1.9-1.9,4.3-2.9,6.9-2.9c2.6,0,5.1,1,6.9,2.9c1.9,1.9,2.9,4.3,2.9,7s-1,5.1-2.9,7l-18.5,18.3
		c-0.9,0.9-2.4,0.9-3.3,0l-18.2-18.2c-1.9-1.9-2.9-4.3-2.9-6.9S252.4,19.8,254.3,17.9z"/>
</g>
</svg>
