<?xml version="1.0" encoding="utf-8"?>
<!-- Generator: Adobe Illustrator 24.3.0, SVG Export Plug-In . SVG Version: 6.00 Build 0)  -->
<svg version="1.1" id="Capa_1" xmlns="http://www.w3.org/2000/svg" xmlns:xlink="http://www.w3.org/1999/xlink" x="0px" y="0px"
	 viewBox="0 0 512 512" style="enable-background:new 0 0 512 512;" xml:space="preserve">
<style type="text/css">
	.st0{fill:#FFFFFF;stroke:#000000;stroke-miterlimit:10;}
</style>
<g>
	<path class="st0" d="M184.3,324.7c-3.4-9.4-10.3-16.9-19.4-21.1c-9.1-4.2-19.2-4.7-28.7-1.2l-29.4,10.7c-1.2,0.4-2.3,1.2-3.2,2.2
		l-27.4,31.8l-6.1-16.7c-1.6-5.5-38.1-132.6,21-212.6c32.4-43.7,87.8-65.9,164.9-65.9c64.2,0,113.6,15.4,146.8,45.9
		c26.2,23.9,42.6,57.3,48.9,99.2c0.6,4.1,4.4,6.9,8.5,6.3c4.1-0.6,6.9-4.4,6.3-8.5c-6.8-45.4-24.9-81.8-53.6-108.1
		c-36.1-33-88.9-49.8-157-49.8c-82.1,0-141.6,24.2-177,72c-26.9,36.3-39.4,87-36.2,146.6c2.4,44.6,12.5,78.1,12.9,79.5
		c0,0.1,0.1,0.3,0.1,0.4L114.5,496c-21.1-3.8-38.9-18.1-46.9-38.7l-15.9-41c-5.9-15.2-7.5-31.6-4.8-47.7c0.2-1.2,0.1-2.5-0.3-3.7
		c-0.1-0.4-13.6-40.3-19.1-92.4c-5-47.6-4.1-115.5,28.3-168.6c2.2-3.5,1-8.2-2.5-10.3c-3.5-2.2-8.2-1-10.3,2.5
		C8.3,153,7.3,224.5,12.6,274.5c5.1,48,16.4,85,19.2,93.5c-2.8,18.1-0.8,36.7,5.9,53.8l15.9,41c5.7,14.6,15.5,26.9,28.4,35.7
		c12.9,8.8,28,13.5,43.6,13.5c5.6,0.1,9.2-6.3,6.7-11.2l41.5,6.7c1.3,0.2,2.6,0.1,3.8-0.4l29.5-10.8c9.4-3.4,16.9-10.3,21.1-19.4
		s4.7-19.2,1.2-28.7L184.3,324.7z M214.5,470.6c-2.5,5.4-7,9.6-12.7,11.6l-22.5,8.2l-16.1-44.2c-1.4-3.9-5.7-5.9-9.6-4.5
		c-3.9,1.4-5.9,5.7-4.5,9.6l14.3,39.2l-37.1-6L82,363.2l24.6-28.5l32.2,88.4c1.4,3.9,5.7,5.9,9.6,4.5c3.9-1.4,5.9-5.7,4.5-9.6
		l-34-93.4l22.5-8.2c5.6-2.1,11.7-1.8,17.2,0.7c5.4,2.5,9.6,7,11.6,12.7l45.1,123.6C217.3,459.1,217,465.2,214.5,470.6L214.5,470.6z
		"/>
	<path class="st0" d="M497.6,176.2c-5.9-35.5-18-66.2-36-91.4C421.4,28.5,352.2,0,256,0C167.5,0,101.7,24.2,60.5,72
		c-2.7,3.1-2.4,7.9,0.8,10.6c3.1,2.7,7.9,2.4,10.6-0.8C110.1,37.5,172.1,15,256,15c91.1,0,156.1,26.4,193.4,78.5
		c37.8,52.9,40.3,123.5,35.6,173.5c-5.1,54.8-19.5,97.5-19.6,97.9c-0.4,1.2-0.5,2.5-0.3,3.7c2.8,16,1.1,32.5-4.8,47.7l-15.9,41
		c-8,20.6-25.8,34.9-46.9,38.7l58.6-160.7c0-0.1,0.1-0.3,0.1-0.4c0.6-2.1,15.4-51,13.2-109.4c-0.2-4.1-3.6-7.4-7.8-7.2
		c-4.1,0.2-7.4,3.6-7.2,7.8c2,54-11.5,101-12.5,104.2l-6.1,16.7l-27.4-31.8c-0.9-1-2-1.7-3.2-2.2l-29.4-10.7
		c-18.8-7.3-41.5,3.3-48,22.4l-45.1,123.6c-3.4,9.4-3,19.6,1.2,28.7c4.2,9.1,11.7,16,21.1,19.4l29.5,10.8c1.2,0.4,2.5,0.6,3.8,0.4
		l41.5-6.7c-2.6,4.9,1,11.3,6.7,11.2c15.6,0,30.7-4.7,43.6-13.5c12.9-8.8,22.7-21.2,28.4-35.7l15.9-41c6.7-17.1,8.7-35.7,5.9-53.8
		c2.9-8.9,15-48.5,19.7-99.2C503,235.5,502.2,204.4,497.6,176.2L497.6,176.2z M297.5,470.6c-2.5-5.4-2.8-11.5-0.7-17.2l45.1-123.6
		c2.1-5.6,6.2-10.1,11.6-12.7c3-1.4,6.2-2.1,9.5-2.1c2.6,0,5.2,0.5,7.7,1.4l22.5,8.2l-60.5,165.8l-22.5-8.2
		C304.5,480.2,300,476.1,297.5,470.6L297.5,470.6z M348.5,490.6l56.8-155.9l24.6,28.5l-44.3,121.4L348.5,490.6z"/>
	<path class="st0" d="M109.2,208.2c-4.2,0-7.5,3.4-7.5,7.5v57.5c0,4.1,3.4,7.5,7.5,7.5s7.5-3.4,7.5-7.5v-14.1l20.2,19.5
		c3,2.9,7.7,2.8,10.6-0.2c2.9-3,2.8-7.7-0.2-10.6L122,243.3l23.2-21.3c3.1-2.8,3.3-7.6,0.4-10.6c-2.8-3.1-7.6-3.3-10.6-0.4
		l-18.3,16.8v-12C116.7,211.6,113.4,208.2,109.2,208.2L109.2,208.2z"/>
	<path class="st0" d="M245.2,208.2h-16c-4-0.1-7.6,3.5-7.5,7.5v57.5c0,4.1,3.4,7.5,7.5,7.5s7.5-3.4,7.5-7.5v-17.5c3.1,0,6.5,0,8.5,0
		c13.3,0,24.1-10.6,24.1-23.7S258.5,208.2,245.2,208.2L245.2,208.2z M245.2,240.6c-2,0-5.3,0-8.4,0c0-3.2,0-14.1,0-17.4h8.5
		c4.9,0,9,4,9,8.7S250.1,240.6,245.2,240.6L245.2,240.6z"/>
	<path class="st0" d="M386.2,208.2h-16c-4-0.1-7.6,3.5-7.5,7.5v57.5c0,4.1,3.4,7.5,7.5,7.5s7.5-3.4,7.5-7.5v-17.5c3.1,0,6.5,0,8.5,0
		c13.3,0,24.1-10.6,24.1-23.7S399.5,208.2,386.2,208.2L386.2,208.2z M386.2,240.6c-2,0-5.3,0-8.4,0c0-3.2,0-14.1,0-17.4h8.5
		c4.9,0,9,4,9,8.7S391.1,240.6,386.2,240.6L386.2,240.6z"/>
	<path class="st0" d="M162.5,236.9c-4.2,0-7.5,3.4-7.5,7.5s3.4,7.5,7.5,7.5h34.8c4.2,0,7.5-3.4,7.5-7.5c0-4.1-3.4-7.5-7.5-7.5H162.5
		z"/>
	<path class="st0" d="M314.5,280.7c20,0,36.3-16.3,36.3-36.3c0-20-16.3-36.3-36.3-36.3s-36.3,16.3-36.3,36.3
		S294.5,280.7,314.5,280.7z M314.5,223.2c11.7,0,21.2,9.5,21.2,21.2c0,11.7-9.5,21.2-21.2,21.2c-11.7,0-21.2-9.5-21.2-21.2
		C293.3,232.7,302.8,223.2,314.5,223.2z"/>
	<path class="st0" d="M278.9,87.1c-8.8-0.7-17.1,2-22.9,7.1c-5.8-5.1-14.1-7.9-22.9-7.1c-11.5,1-24.7,8.6-27.3,27.3
		c-5,36.6,44.8,61.2,46.9,62.3c2.1,1,4.5,1,6.6,0c2.1-1,51.9-25.7,46.9-62.3C303.6,95.8,290.4,88.1,278.9,87.1z M256,161.4
		c-9.8-5.6-38.3-23.7-35.4-44.9c1.6-11.6,9.2-14,13.7-14.3c0.5,0,1-0.1,1.5-0.1c6.1,0,11.6,3.1,13,7.5c1,3.1,3.9,5.3,7.2,5.3
		c3.3,0,6.2-2.1,7.2-5.3c1.5-4.7,7.8-8,14.5-7.4c4.4,0.4,12.1,2.7,13.7,14.3C294,136,269.2,154.1,256,161.4L256,161.4z"/>
</g>
</svg>
